HIERARCHY
ROOT Hips
{
    OFFSET 0.000000 0.000000 0.000000
    CHANNELS 6 Xposition Yposition Zposition Zrotation Xrotation Yrotation
    JOINT Spine
    {
        OFFSET -0.000000 14.517291 0.000000
        CHANNELS 3 Zrotation Xrotation Yrotation
        JOINT Spine1
        {
            OFFSET -0.000000 37.558300 0.000000
            CHANNELS 3 Zrotation Xrotation Yrotation
            JOINT Neck
            {
                OFFSET -0.000000 37.404057 3.400369
                CHANNELS 3 Zrotation Xrotation Yrotation
                JOINT Head
                {
                    OFFSET -0.000000 24.785618 -3.540803
                    CHANNELS 3 Zrotation Xrotation Yrotation
                    End Site
                    {
                        OFFSET -0.000000 35.408028 0.000000
                    }
                }
            }
            JOINT LeftShoulder
            {
                OFFSET 6.992933 33.973492 -0.192664
                CHANNELS 3 Zrotation Xrotation Yrotation
                JOINT LeftArm
                {
                    OFFSET 21.527611 0.000000 0.000000
                    CHANNELS 3 Zrotation Xrotation Yrotation
                    JOINT LeftForeArm
                    {
                        OFFSET 56.353916 0.000000 0.000000
                        CHANNELS 3 Zrotation Xrotation Yrotation
                        JOINT LeftHand
                        {
                            OFFSET 47.774071 0.000000 0.000000
                            CHANNELS 3 Zrotation Xrotation Yrotation
                            End Site
                            {
                                OFFSET 26.556021 0.000000 0.000000
                            }
                        }
                    }
                }
            }
            JOINT RightShoulder
            {
                OFFSET -7.065357 33.973492 -0.192664
                CHANNELS 3 Zrotation Xrotation Yrotation
                JOINT RightArm
                {
                    OFFSET -21.527611 0.000000 0.000000
                    CHANNELS 3 Zrotation Xrotation Yrotation
                    JOINT RightForeArm
                    {
                        OFFSET -56.353916 0.000000 0.000000
                        CHANNELS 3 Zrotation Xrotation Yrotation
                        JOINT RightHand
                        {
                            OFFSET -47.774071 0.000000 0.000000
                            CHANNELS 3 Zrotation Xrotation Yrotation
                            End Site
                            {
                                OFFSET -26.556021 0.000000 0.000000
                            }
                        }
                    }
                }
            }
        }
    }
    JOINT LeftUpLeg
    {
        OFFSET 17.704014 0.000000 0.000000
        CHANNELS 3 Zrotation Xrotation Yrotation
        JOINT LeftLeg
        {
            OFFSET -0.000000 -81.181816 0.000000
            CHANNELS 3 Zrotation Xrotation Yrotation
            JOINT LeftFoot
            {
                OFFSET -0.000000 -62.821102 0.000000
                CHANNELS 3 Zrotation Xrotation Yrotation
                JOINT LeftToeBase
                {
                    OFFSET -0.000000 -11.507608 26.556021
                    CHANNELS 3 Zrotation Xrotation Yrotation
                    End Site
                    {
                        OFFSET -0.000000 0.000000 7.081605
                    }
                }
            }
        }
    }
    JOINT RightUpLeg
    {
        OFFSET -17.704014 0.000000 0.000000
        CHANNELS 3 Zrotation Xrotation Yrotation
        JOINT RightLeg
        {
            OFFSET -0.000000 -81.181816 0.000000
            CHANNELS 3 Zrotation Xrotation Yrotation
            JOINT RightFoot
            {
                OFFSET -0.000000 -62.821102 0.000000
                CHANNELS 3 Zrotation Xrotation Yrotation
                JOINT RightToeBase
                {
                    OFFSET -0.000000 -11.507608 26.556021
                    CHANNELS 3 Zrotation Xrotation Yrotation
                    End Site
                    {
                        OFFSET -0.000000 0.000000 7.081605
                    }
                }
            }
        }
    }
}
MOTION
Frames:    7
Frame Time:    0.008333
1.305447    157.957535    -17.639967    0.655385    1.241581    -14.245406    4.245833    -0.967587    11.705952    -5.997445    -1.262533    3.823890    7.550992    -6.780504    -2.286773    2.354227    8.457392    -3.795604    3.408605    1.935282    -7.176742    -44.372822    12.672164    -41.436909    -4.430338    -22.886976    -125.240051    -2.092608    -30.475969    -3.924754    -16.788141    -3.184215    7.286249    32.574188    -21.029078    81.296700    3.712108    -15.486391    6.286306    11.687105    -11.241038    42.545929    12.424745    -20.009100    -7.808293    -8.295182    5.457230    -10.090392    -9.231129    9.354554    39.017216    0.000000    0.000000    0.000000    -2.429649    14.521147    -20.600018    1.725603    8.586640    -10.625267    9.642557    -16.357370    -5.356163    0.000000    0.000000    0.000000    
1.317265    157.962021    -17.641300    0.653669    1.258589    -14.260208    4.244155    -0.938562    11.699904    -6.007460    -1.284645    3.820967    7.565110    -6.763875    -2.283678    2.347245    8.448239    -3.794538    3.407485    1.922236    -7.189600    -44.380886    12.663463    -41.421486    -4.430177    -22.881603    -125.247345    -2.116601    -30.470877    -3.932323    -16.787653    -3.185238    7.301102    32.536057    -21.021065    81.252510    3.695803    -15.514862    6.348171    11.712635    -11.258349    42.570789    12.438108    -20.058168    -7.819145    -8.308658    5.535610    -10.112359    -9.244237    9.296182    39.052383    0.000000    0.000000    0.000000    -2.441436    14.492017    -20.618872    1.732161    8.611949    -10.614565    9.634496    -16.345846    -5.328021    0.000000    0.000000    0.000000    
1.330292    157.966156    -17.648771    0.652070    1.275572    -14.271040    4.233754    -0.904065    11.687797    -6.002788    -1.309315    3.816151    7.545887    -6.757995    -2.284271    2.383189    8.450121    -3.788276    3.400290    1.925646    -7.187407    -44.388123    12.637447    -41.426941    -4.451039    -22.840706    -125.259796    -2.099119    -30.469784    -3.944589    -16.801344    -3.172757    7.310452    32.484138    -21.012447    81.214684    3.666112    -15.571261    6.426805    11.768118    -11.290891    42.607571    12.446093    -20.129210    -7.823123    -8.114247    5.773213    -10.811763    -9.647563    8.893841    39.404751    0.000000    0.000000    0.000000    -2.446549    14.461663    -20.634207    1.733778    8.631259    -10.644487    9.660880    -16.337061    -5.281937    0.000000    0.000000    0.000000    
1.341185    157.969803    -17.655390    0.650066    1.287210    -14.284877    4.218434    -0.857199    11.680758    -5.997175    -1.346280    3.812545    7.569175    -6.750701    -2.279925    2.358951    8.451658    -3.789857    3.390255    1.935576    -7.194663    -44.385303    12.626583    -41.423458    -4.451682    -22.838140    -125.271416    -2.111648    -30.469784    -3.951192    -16.807764    -3.149893    7.320710    32.448883    -21.015524    81.179359    3.650538    -15.609705    6.522736    11.794097    -11.319493    42.630051    12.461643    -20.183847    -7.828002    -8.141004    5.865197    -10.821383    -9.634753    8.855409    39.424519    0.000000    0.000000    0.000000    -2.457553    14.434417    -20.680639    1.733120    8.662580    -10.619538    9.675716    -16.336575    -5.245151    0.000000    0.000000    0.000000    
1.355269    157.972443    -17.663637    0.646191    1.302179    -14.287222    4.220491    -0.815017    11.663794    -6.009944    -1.371342    3.805940    7.536707    -6.741892    -2.283690    2.423806    8.445371    -3.781761    3.385135    1.945508    -7.195639    -44.364059    12.634776    -41.427402    -4.437890    -22.874224    -125.278427    -2.126631    -30.480761    -3.970201    -16.804125    -3.149243    7.337627    32.435272    -21.019312    81.146667    3.646026    -15.643908    6.618055    11.826135    -11.341969    42.653061    12.475899    -20.255901    -7.847419    -8.176782    5.973811    -10.806189    -9.637955    8.805469    39.448006    0.000000    0.000000    0.000000    -2.462103    14.401770    -20.726740    1.729257    8.696989    -10.641575    9.689816    -16.328802    -5.178782    0.000000    0.000000    0.000000    
1.370385    157.971542    -17.674021    0.652983    1.325568    -14.290308    4.196808    -0.788255    11.653097    -5.990731    -1.388274    3.802099    7.534391    -6.769243    -2.283540    2.414492    8.479945    -3.784296    3.367847    1.950876    -7.194461    -44.344040    12.649879    -41.434559    -4.423108    -22.909929    -125.279007    -2.139302    -30.489019    -3.980067    -16.824432    -3.153749    7.330034    32.446152    -21.018393    81.129311    3.652745    -15.677385    6.725950    11.862096    -11.364073    42.668373    12.485502    -20.345896    -7.879356    -8.215262    6.094991    -10.797928    -9.639642    8.756106    39.471230    0.000000    0.000000    0.000000    -2.477884    14.359947    -20.785383    1.727941    8.735896    -10.618709    9.722516    -16.340675    -5.129790    0.000000    0.000000    0.000000    
1.384381    157.970581    -17.681799    0.653053    1.340364    -14.288898    4.183483    -0.748511    11.638792    -5.978528    -1.405162    3.797123    7.490301    -6.782592    -2.295337    2.457898    8.502602    -3.785722    3.353824    1.948001    -7.194776    -44.324299    12.665510    -41.429867    -4.408617    -22.937248    -125.278549    -2.144597    -30.489882    -3.996011    -16.836262    -3.162353    7.319016    32.440956    -21.012417    81.112915    3.652611    -15.691604    6.834184    11.908359    -11.363716    42.670876    12.496449    -20.435503    -7.878450    -8.255476    6.239247    -10.824824    -9.630433    8.700584    39.506489    0.000000    0.000000    0.000000    -2.487961    14.325838    -20.847242    1.728446    8.773995    -10.614902    9.730425    -16.348404    -5.079943    0.000000    0.000000    0.000000    
